<svg
 xmlns="http://www.w3.org/2000/svg"
 xmlns:xlink="http://www.w3.org/1999/xlink"
 width="210mm"
 height="297mm"
 viewBox="0 0 210 297"
 >
<!--

https://xkcd.com/2367/
https://imgs.xkcd.com/comics/masks_2x.png

inkscape -o /tmp/mask_xkcd.pdf mask_xkcd.svg

 -->
<image xlink:href="mask_xkcd.png"
 width="171" height="285" x="6" y="6"
 />
<rect style="fill: none; stroke: white; stroke-width: 3;"
 x="6" y="6" width="171" height="285"
 />
<g style="fill: red">
 <path d="M 167,55 C 177,65 177,143 167,153 C 174,143 174,65 167,55 z" />
 <path d="M 167,210 C 177,220 177,273 167,283 C 174,273 174,220 167,210 z" />
 <path d="M 13,-1 L 4,-1 L 5,-3 L 0,0 L 5,3 L 4,1 L 13,1 z"
  transform="translate(162,181)" />
 <text
   style="text-anchor: middle; font-size: 20; font-family: Symbola;">
  <tspan x="186" y="110">⛔</tspan>
  <tspan x="186" y="186">⛔</tspan>
  <tspan x="186" y="251">⛔</tspan>
 </text>
</g>
<g style="fill: green">
 <text
   style="text-anchor: middle; font-size: 20; font-family: Symbola;">
  <tspan x="186" y="167">☺</tspan>
  <tspan x="186" y="207">☺</tspan>
 </text>
 <path d="M 40,-1 L 4,-1 L 5,-3 L 0,0 L 5,3 L 4,1 L 40,1 z"
  transform="translate(135,162)" />
 <path d="M 48,-1 L 4,-1 L 5,-3 L 0,0 L 5,3 L 4,1 L 48,1 z"
  transform="translate(127,201)" />
</g>
</svg>
